<?xml version="1.0" standalone="no"?>
<!DOCTYPE svg PUBLIC "-//W3C//DTD SVG 20010904//EN"
 "http://www.w3.org/TR/2001/REC-SVG-20010904/DTD/svg10.dtd">
<svg version="1.0" xmlns="http://www.w3.org/2000/svg"
 width="50.000000pt" height="50.000000pt" viewBox="0 0 50.000000 50.000000"
 preserveAspectRatio="xMidYMid meet">
<metadata>
Created by potrace 1.10, written by Peter Selinger 2001-2011
</metadata>
<g transform="translate(0.000000,50.000000) scale(0.100000,-0.100000)"
fill="#000000" stroke="none">
<path d="M210 477 c0 -17 -10 -28 -36 -41 -35 -16 -37 -16 -56 0 -18 17 -20
17 -45 -9 -26 -25 -26 -27 -9 -45 16 -19 16 -21 0 -56 -13 -26 -24 -36 -41
-36 -20 0 -23 -5 -23 -40 0 -35 3 -40 23 -40 17 0 28 -10 41 -36 16 -35 16
-37 0 -56 -17 -18 -17 -20 9 -45 25 -26 27 -26 45 -9 19 16 21 16 56 0 26 -13
36 -24 36 -41 0 -20 5 -23 40 -23 35 0 40 3 40 23 0 17 10 28 36 41 35 16 37
16 56 0 18 -17 20 -17 45 9 26 25 26 27 9 45 -16 19 -16 21 0 56 13 26 24 36
41 36 20 0 23 5 23 40 0 35 -3 40 -23 40 -17 0 -28 10 -41 36 -16 35 -16 37 0
56 17 18 17 20 -9 45 -25 26 -27 26 -45 9 -19 -16 -21 -16 -56 0 -26 13 -36
24 -36 41 0 20 -5 23 -40 23 -35 0 -40 -3 -40 -23z m60 -12 c0 -19 9 -28 47
-45 43 -19 47 -19 65 -3 17 15 20 16 35 0 16 -15 15 -18 0 -35 -16 -18 -16
-22 3 -65 17 -38 26 -47 45 -47 18 0 25 -5 25 -20 0 -15 -7 -20 -25 -20 -19 0
-28 -9 -45 -47 -19 -43 -19 -47 -3 -65 15 -17 16 -20 0 -35 -15 -16 -18 -15
-35 0 -18 16 -22 16 -65 -3 -38 -17 -47 -26 -47 -45 0 -18 -5 -25 -20 -25 -15
0 -20 7 -20 25 0 19 -9 28 -47 45 -43 19 -47 19 -65 3 -17 -15 -20 -16 -35 0
-16 15 -15 18 0 35 16 18 16 22 -3 65 -17 38 -26 47 -45 47 -18 0 -25 5 -25
20 0 15 7 20 25 20 19 0 28 9 45 47 19 43 19 47 3 65 -15 17 -16 20 0 35 15
16 18 15 35 0 18 -16 22 -16 65 3 38 17 47 26 47 45 0 18 5 25 20 25 15 0 20
-7 20 -25z"/>
<path d="M206 400 c-42 -13 -95 -68 -107 -112 -28 -104 74 -212 180 -192 47 9
108 67 121 115 21 78 -30 167 -109 189 -41 11 -46 11 -85 0z m98 -24 c93 -39
112 -165 35 -231 -41 -33 -59 -32 -59 4 0 20 8 34 25 45 21 14 25 24 25 65 0
41 -4 51 -25 65 -13 9 -26 16 -29 16 -3 0 -6 -24 -8 -52 -2 -39 -7 -53 -18
-53 -11 0 -16 14 -18 53 -2 28 -5 52 -8 52 -3 0 -16 -7 -29 -16 -21 -14 -25
-24 -25 -65 0 -41 4 -51 25 -65 17 -11 25 -25 25 -45 0 -36 -18 -37 -59 -4
-76 65 -59 191 33 231 40 17 69 17 110 0z m-74 -154 c32 -20 60 4 60 52 0 30
3 36 13 28 19 -16 9 -80 -16 -97 -16 -11 -20 -24 -19 -55 2 -35 0 -40 -18 -40
-18 0 -20 5 -18 39 1 30 -3 44 -20 58 -23 20 -32 69 -17 93 8 11 11 5 13 -25
2 -27 9 -45 22 -53z"/>
</g>
</svg>
